<svg xmlns="http://www.w3.org/2000/svg" width="70" height="70" viewBox="0 0 70 70" version="1.1"><g id="Page-1" stroke="none" stroke-width="1" fill="none" fill-rule="evenodd"><g id="LIVE_PREVIEW_HOVER" transform="translate(-420.000000, -421.000000)" fill="#FFFFFF"><path d="M421.98 421C420.89 421 420 421.89 420 422.98L420 489.02C420 490.11 420.89 491 421.98 491L488.02 491C489.11 491 490 490.11 490 489.02L490 422.98C490 421.89 489.11 421 488.02 421L421.98 421 421.98 421ZM485 484.02C485 485.11 484.11 486 483.02 486L426.98 486C425.89 486 425 485.11 425 484.02L425 427.98C425 426.89 425.89 426 426.98 426L483.02 426C484.11 426 485 426.89 485 427.98L485 484.02 485 484.02ZM444 451.94C444 450.87 443.09 450 441.98 450L434.02 450C432.91 450 432 450.87 432 451.94L432 476.06C432 477.13 432.91 478 434.02 478L441.98 478C443.09 478 444 477.13 444 476.06L444 451.94 444 451.94ZM451 476.03C451 477.11 451.89 478 452.98 478L476.02 478C477.11 478 478 477.11 478 476.03L478 451.97C478 450.89 477.11 450 476.02 450L452.98 450C451.89 450 451 450.89 451 451.97L451 476.03 451 476.03ZM478 433.93C478 432.87 477.1 432 476.01 432L433.99 432C432.9 432 432 432.87 432 433.93L432 441.07C432 442.13 432.9 443 433.99 443L476.01 443C477.1 443 478 442.13 478 441.07L478 433.93 478 433.93Z" id="Imported-Layers"/></g></g></svg>