<?xml version="1.0" encoding="utf-8"?>
<!DOCTYPE svg PUBLIC "-//W3C//DTD SVG 20010904//EN" "http://www.w3.org/TR/2001/REC-SVG-20010904/DTD/svg10.dtd">
<svg version="1.0" xmlns="http://www.w3.org/2000/svg" width="202pt" height="202pt" viewBox="0 0 202 202" style="" preserveAspectRatio="xMidYMid meet">
<g fill="#FAE95DFF" stroke="#FAE95DFF">
<path d="M 62.000 22.524 C 52.482 24.654 38.733 31.861 28.750 39.953 C 23.938 43.854 19.948 46.923 19.885 46.773 C 19.821 46.623 19.709 47.175 19.635 48.000 C 19.561 48.825 18.999 49.408 18.387 49.296 C 17.031 49.047 11.579 59.988 8.373 69.390 C -1.240 97.582 2.568 129.317 18.525 154.000 L 21.435 158.500 22.125 153.112 C 22.937 146.769 25.199 143.371 30.405 140.669 C 33.547 139.039 34.995 138.856 38.849 139.601 C 41.609 140.134 43.500 141.042 43.500 141.833 C 43.500 142.567 43.823 142.844 44.218 142.449 C 44.612 142.054 48.495 145.080 52.846 149.173 C 67.030 162.517 86.731 174.464 102.000 178.981 C 111.805 181.882 123.280 182.997 132.500 181.946 C 136.900 181.444 141.400 181.246 142.500 181.507 C 143.600 181.768 143.861 181.698 143.080 181.351 C 141.350 180.582 153.890 175.802 155.802 176.501 C 156.518 176.763 156.829 176.532 156.493 175.989 C 155.915 175.053 156.479 174.829 160.000 174.596 C 160.825 174.542 161.351 174.106 161.170 173.628 C 160.988 173.150 163.270 171.126 166.241 169.129 C 181.591 158.815 187.053 151.523 193.593 132.610 C 204.445 101.232 198.857 68.217 177.948 40.170 L 175.500 36.887 176.414 40.925 C 178.245 49.015 172.921 58.174 165.588 59.550 C 159.876 60.621 154.365 58.356 147.967 52.307 C 134.477 39.552 114.220 28.051 98.000 23.937 C 87.101 21.173 70.881 20.536 62.000 22.524 M 108.649 58.319 C 110.352 59.199 112.080 60.950 112.488 62.210 C 112.897 63.469 113.348 64.838 113.490 65.250 C 113.633 65.663 113.806 70.923 113.875 76.939 L 114.000 87.879 125.250 88.255 C 141.300 88.792 142.367 89.236 145.607 96.718 C 147.408 100.879 147.365 103.428 145.423 107.521 C 143.097 112.424 138.244 114.000 125.480 114.000 L 115.000 114.000 114.931 123.250 C 114.817 138.541 114.022 141.374 109.017 144.331 C 105.411 146.461 100.589 146.461 96.983 144.331 C 91.978 141.374 91.183 138.541 91.069 123.250 L 91.000 114.000 80.520 114.000 C 67.549 114.000 62.915 112.447 60.463 107.281 C 58.624 103.406 58.911 94.863 60.902 94.199 C 61.506 93.998 62.000 93.285 62.000 92.614 C 62.000 90.176 71.111 87.990 81.250 87.995 L 91.000 88.000 91.125 77.000 C 91.194 70.950 91.367 65.663 91.510 65.250 C 91.652 64.838 92.103 63.469 92.512 62.208 C 93.408 59.445 99.357 56.190 102.953 56.496 C 104.383 56.618 106.946 57.438 108.649 58.319 "/></g>
<g fill="#59B704FF" stroke="#59B704FF">
<path d="M 98.423 57.604 C 96.265 58.355 94.436 58.977 94.359 58.985 C 94.281 58.993 93.493 60.809 92.609 63.020 C 91.472 65.860 91.000 70.264 91.000 78.020 L 91.000 89.000 79.450 89.000 C 66.214 89.000 63.162 90.031 60.635 95.357 C 58.584 99.679 58.559 102.926 60.557 105.777 C 61.413 107.000 61.863 108.056 61.557 108.125 C 61.251 108.194 61.338 108.322 61.750 108.410 C 62.163 108.499 63.625 109.216 65.000 110.005 C 66.642 110.947 71.487 111.570 79.121 111.821 L 90.742 112.203 91.211 125.194 C 91.561 134.887 92.038 138.411 93.090 139.077 C 93.866 139.568 94.163 140.033 93.750 140.110 C 93.338 140.187 93.338 140.325 93.750 140.417 C 94.163 140.509 95.940 141.352 97.700 142.292 C 99.461 143.231 101.845 144.000 103.000 144.000 C 104.155 144.000 106.539 143.231 108.300 142.292 C 110.060 141.352 111.838 140.509 112.250 140.417 C 112.663 140.325 112.663 140.187 112.250 140.110 C 111.838 140.033 112.134 139.568 112.910 139.077 C 113.962 138.411 114.439 134.887 114.789 125.194 L 115.258 112.203 126.879 111.821 C 134.513 111.570 139.358 110.947 141.000 110.005 C 142.375 109.216 143.838 108.499 144.250 108.410 C 144.663 108.322 144.749 108.194 144.443 108.125 C 144.137 108.056 144.587 107.000 145.443 105.777 C 147.517 102.816 147.406 100.470 144.950 95.396 C 142.277 89.875 139.595 89.000 125.351 89.000 L 114.000 89.000 114.000 78.020 C 114.000 66.366 112.373 59.777 109.172 58.473 C 104.339 56.504 102.104 56.323 98.423 57.604 "/></g>
<g fill="#9DD24DFF" stroke="#9DD24DFF">
<path d="M 30.017 140.851 C 25.145 143.464 22.795 147.073 22.247 152.785 C 21.590 159.614 23.769 163.671 32.374 171.648 C 47.542 185.707 63.862 194.142 83.500 198.072 C 91.039 199.581 109.445 199.573 118.000 198.057 C 138.618 194.404 160.820 182.138 173.559 167.362 C 180.691 159.090 181.310 157.441 175.458 162.307 C 148.380 184.824 118.928 188.397 87.156 173.019 C 75.832 167.539 62.990 158.575 52.153 148.588 C 41.284 138.571 37.037 137.086 30.017 140.851 M 42.816 141.941 C 43.742 142.459 47.886 146.171 52.025 150.191 C 66.173 163.933 87.210 176.318 104.500 181.085 C 110.527 182.746 115.336 183.301 124.000 183.335 C 138.023 183.390 147.413 181.052 159.986 174.376 C 167.402 170.437 168.158 170.205 165.986 172.531 C 162.422 176.346 149.554 185.220 142.297 188.865 C 125.191 197.458 102.457 200.208 82.942 196.044 C 69.336 193.140 59.360 189.220 49.567 182.930 C 40.077 176.834 28.367 165.809 26.410 161.128 C 22.294 151.283 28.093 141.058 37.816 141.015 C 39.639 141.007 41.889 141.424 42.816 141.941 "/></g>
<g fill="#9DD24DFF" stroke="#9DD24DFF">
<path d="M 80.906 4.939 C 56.788 10.322 34.162 25.494 20.187 45.654 C 16.831 50.496 17.537 50.321 23.055 44.946 C 34.634 33.668 49.792 25.215 63.500 22.391 C 89.304 17.075 123.522 29.194 147.967 52.307 C 156.941 60.791 165.408 62.157 171.832 56.157 C 177.541 50.824 178.339 41.766 173.703 34.888 C 167.082 25.062 143.980 10.743 127.000 5.940 C 115.947 2.813 92.691 2.308 80.906 4.939 "/></g>
<g fill="#299611FF" stroke="#299611FF">
<path d="M 34.619 142.035 C 25.367 144.803 22.868 155.641 29.373 164.784 C 33.795 170.998 47.690 181.630 58.386 186.983 C 91.026 203.318 128.072 200.410 156.409 179.290 L 164.177 173.500 157.023 176.798 C 137.437 185.827 115.488 186.436 94.491 178.533 C 79.865 173.027 63.233 162.032 49.947 149.084 C 45.949 145.188 42.112 142.000 41.421 142.000 C 40.729 142.000 39.564 141.814 38.832 141.587 C 38.099 141.359 36.204 141.561 34.619 142.035 "/></g>
<g fill="#299611FF" stroke="#299611FF">
<path d="M 86.113 6.059 C 78.370 7.445 63.495 12.602 56.506 16.323 C 50.972 19.270 36.284 29.582 37.828 29.437 C 38.197 29.402 41.433 27.983 45.017 26.283 C 56.977 20.610 62.126 19.547 77.500 19.580 C 93.011 19.613 100.674 21.176 114.224 27.069 C 127.485 32.837 135.838 38.426 156.430 55.310 C 159.252 57.624 165.922 57.752 169.272 55.557 C 172.251 53.605 175.000 48.331 175.000 44.567 C 175.000 35.808 163.657 24.893 144.293 15.019 C 131.547 8.520 121.007 5.964 105.000 5.492 C 97.575 5.273 89.076 5.528 86.113 6.059 "/></g>
<g fill="#299611FF" stroke="#299611FF">
<path d="M 144.082 107.525 C 141.274 110.663 138.310 111.425 126.500 112.040 L 114.500 112.666 125.782 112.833 C 138.110 113.015 142.798 111.836 144.500 108.123 C 145.385 106.192 145.337 106.123 144.082 107.525 "/></g>
<g fill="#299611FF" stroke="#299611FF">
<path d="M 61.422 108.175 C 63.893 112.041 67.887 113.021 80.399 112.833 L 91.500 112.666 79.500 112.060 C 67.167 111.438 66.192 111.188 62.106 107.601 L 59.712 105.500 61.422 108.175 "/></g>
<g fill="#299611FF" stroke="#299611FF">
<path d="M 93.941 140.890 C 94.491 141.918 96.755 143.485 98.971 144.372 C 102.677 145.855 103.323 145.855 107.029 144.372 C 109.245 143.485 111.509 141.918 112.059 140.890 C 112.891 139.335 112.442 139.439 109.390 141.510 C 107.372 142.879 104.496 144.000 103.000 144.000 C 101.504 144.000 98.628 142.879 96.610 141.510 C 93.558 139.439 93.109 139.335 93.941 140.890 "/></g>
<g fill="#FAE95DFF" stroke="#FAE95DFF">
<path d="M 165.250 172.242 C 164.013 173.416 162.944 174.067 162.875 173.689 C 162.806 173.310 162.658 173.338 162.546 173.750 C 162.434 174.163 162.153 175.087 161.921 175.803 C 161.689 176.520 162.850 175.532 164.500 173.607 C 166.150 171.682 166.488 171.068 165.250 172.242 "/></g>
<g fill="#FAE95DFF" stroke="#FAE95DFF">
<path d="M 154.000 54.000 L 156.500 56.500 154.000 54.000 L 151.500 51.500 154.000 54.000 "/></g>
<g fill="#59B704FF" stroke="#59B704FF">
<path d="M 170.000 33.000 L 172.500 35.500 170.000 33.000 L 167.500 30.500 170.000 33.000 "/></g>
<g fill="#FAE95DFF" stroke="#FAE95DFF">
<path d="M 38.000 25.888 L 36.500 27.563 38.000 25.888 L 39.500 24.212 38.000 25.888 "/></g>
<g fill="#59B704FF" stroke="#59B704FF">
<path d="M 36.000 172.000 L 38.000 174.000 36.000 172.000 L 34.000 170.000 36.000 172.000 "/></g>
<g fill="#59B704FF" stroke="#59B704FF">
<path d="M 52.000 151.000 L 54.000 153.000 52.000 151.000 L 50.000 149.000 52.000 151.000 "/></g>
<g fill="#59B704FF" stroke="#59B704FF">
<path d="M 34.872 31.702 C 33.580 33.305 33.644 33.305 35.973 31.702 C 37.332 30.766 37.950 30.000 37.345 30.000 C 36.740 30.000 35.627 30.766 34.872 31.702 "/></g>
<g fill="#FAE95DFF" stroke="#FAE95DFF">
<path d="M 39.500 175.500 L 41.000 177.000 39.500 175.500 L 38.000 174.000 39.500 175.500 "/></g>
<g fill="#FAE95DFF" stroke="#FAE95DFF">
<path d="M 58.500 156.500 L 60.000 158.000 58.500 156.500 L 57.000 155.000 58.500 156.500 "/></g>
<g fill="#FAE95DFF" stroke="#FAE95DFF">
<path d="M 48.500 147.500 L 50.000 149.000 48.500 147.500 L 47.000 146.000 48.500 147.500 "/></g>
<g fill="#FAE95DFF" stroke="#FAE95DFF">
<path d="M 146.500 47.500 L 148.000 49.000 146.500 47.500 L 145.000 46.000 146.500 47.500 "/></g>
<g fill="#FAE95DFF" stroke="#FAE95DFF">
<path d="M 25.378 38.378 L 24.500 39.256 25.378 38.378 L 26.256 37.500 25.378 38.378 "/></g>
<g fill="#FAE95DFF" stroke="#FAE95DFF">
<path d="M 163.500 26.500 L 165.000 28.000 163.500 26.500 L 162.000 25.000 163.500 26.500 "/></g>
<g fill="#59B704FF" stroke="#59B704FF">
<path d="M 159.422 176.668 C 159.576 177.719 159.923 177.934 160.350 177.242 C 160.726 176.635 160.615 175.880 160.104 175.564 C 159.593 175.249 159.286 175.745 159.422 176.668 "/></g>
<g fill="#59B704FF" stroke="#59B704FF">
<path d="M 150.500 50.500 L 152.000 52.000 150.500 50.500 L 149.000 49.000 150.500 50.500 "/></g>
</svg>
