<?xml version="1.0" standalone="no"?><!DOCTYPE svg PUBLIC "-//W3C//DTD SVG 1.1//EN" "http://www.w3.org/Graphics/SVG/1.1/DTD/svg11.dtd"><svg t="1733646561464" class="icon" viewBox="0 0 1024 1024" version="1.1" xmlns="http://www.w3.org/2000/svg" p-id="6777" xmlns:xlink="http://www.w3.org/1999/xlink" width="200" height="200"><path d="M1.92 768.864c3.072-4.96 7.968-5.28 14.848-0.928 155.136 90.016 324 135.072 506.464 135.072 121.696 0 241.824-22.752 360.416-68.064l13.44-5.984c5.888-2.56 9.984-4.256 12.512-5.536 9.632-3.744 16.64-1.952 22.4 5.536 5.12 7.424 3.84 14.336-5.12 20.48-10.912 8.096-25.6 17.504-42.912 27.904-53.088 31.712-112.64 56.16-178.56 73.632-65.28 17.312-129.92 26.016-192.672 26.016-96.64 0-188.16-16.896-274.56-50.656a763.36 763.36 0 0 1-231.68-142.944c-4.256-3.168-6.4-6.4-6.4-9.376 0-2.016 0.864-3.84 2.144-5.536z m280.096-265.312c0-42.88 10.528-79.488 31.712-109.952 21.12-30.304 49.92-53.344 87.04-68.896 33.952-14.304 74.912-24.544 124.256-30.72 16.64-1.952 44.064-4.384 81.92-7.424v-15.776c0-39.68-4.48-66.464-12.8-80-12.896-18.336-33.28-27.744-61.44-27.744h-7.776c-20.48 1.952-38.24 8.352-53.152 19.616-14.944 11.52-24.544 26.88-28.8 46.752-2.56 12.8-8.8 19.84-18.56 21.76l-107.52-13.44c-10.592-2.56-15.872-7.68-15.872-16.64 0-1.952 0.288-3.84 0.928-6.4 10.528-55.04 36.48-96 77.664-122.88 41.632-26.272 89.6-41.6 144.64-44.8h23.04c70.4 0 126.176 18.528 165.888 55.04 5.76 6.4 11.52 12.8 17.28 20.48 5.12 7.04 9.568 13.408 12.064 19.2 3.2 5.728 6.4 14.08 8.32 24.32 2.56 10.848 4.48 17.92 5.76 21.76 1.28 4.448 2.656 12.8 3.232 26.24 0.416 13.344 0.864 21.024 0.864 23.584v225.28c0 16.032 2.56 30.72 7.04 44.192 4.48 13.344 8.96 23.04 13.44 28.768l21.76 28.768c3.84 5.792 5.792 10.912 5.792 15.36 0 5.12-2.56 9.632-7.68 13.408-51.2 44.8-79.36 69.12-83.744 72.96-7.04 5.76-16 6.4-26.88 1.92-8.32-7.072-16-14.176-22.432-21.152l-13.216-14.816c-2.56-3.168-7.072-8.96-13.536-17.92l-12.8-18.56c-34.56 37.792-68.384 61.44-102.4 71.04-21.088 6.4-46.624 9.696-78.08 9.696-47.36 0-87.04-14.624-117.76-44.128-30.72-29.44-46.08-71.04-46.08-125.44l-2.144-3.232z m160.128-18.688c0 24.16 5.984 43.52 18.144 58.208 12.16 14.496 28.8 21.856 49.28 21.856 1.92 0 4.512-0.288 8.32-0.864 3.84-0.672 5.728-0.992 7.072-0.992 26.208-6.816 46.08-23.584 60.768-50.272 7.04-11.936 12.16-24.736 15.36-38.816 3.84-13.664 5.12-25.184 5.76-34.144 0.64-8.32 0.64-23.04 0.64-42.88v-23.04c-35.84 0-63.328 2.56-81.92 7.68-54.4 15.36-81.92 49.92-81.92 103.68l-1.504-0.864z m390.912 299.808c1.28-2.56 3.2-4.704 5.632-7.264 15.456-10.368 30.464-17.504 44.8-21.344a345.92 345.92 0 0 1 68.768-10.24c5.984-0.512 11.936 0 17.504 1.28 27.744 2.56 44.8 7.168 50.016 14.08 2.688 3.84 3.84 9.728 3.84 16.64v6.4c0 21.76-5.984 47.36-17.696 76.8-11.872 29.44-28.32 53.248-49.312 71.68-3.104 2.56-5.984 3.84-8.416 3.84-1.28 0-2.56 0-3.84-0.512-3.84-1.888-4.576-5.12-2.72-10.24 23.04-53.76 34.4-91.424 34.4-112.64 0-6.4-1.28-11.52-3.712-14.688-6.176-7.072-23.456-10.976-52.224-10.976-10.368 0-22.752 0.672-37.12 1.952-15.488 1.92-29.856 3.84-42.656 5.76-3.84 0-6.304-0.608-7.68-1.888-1.28-1.28-1.536-2.016-0.864-3.296 0-0.736 0.256-1.28 0.864-2.688v-2.56z" fill="#FF9900" p-id="6778"></path></svg>