<?xml version="1.0" encoding="utf-8"?>
<!DOCTYPE svg PUBLIC "-//W3C//DTD SVG 20010904//EN" "http://www.w3.org/TR/2001/REC-SVG-20010904/DTD/svg10.dtd">
<svg version="1.0" xmlns="http://www.w3.org/2000/svg" width="202pt" height="202pt" viewBox="0 0 202 202" style="" preserveAspectRatio="xMidYMid meet">
<g fill="#1296DBFF" stroke="#1296DBFF">
<path d="M 31.018 90.250 L 31.035 178.500 50.457 189.250 C 61.139 195.163 70.380 200.000 70.993 200.000 C 71.606 200.000 94.358 187.136 121.554 171.414 L 171.000 142.828 171.000 120.574 L 171.000 98.320 127.631 83.160 C 103.778 74.822 84.019 68.000 83.722 68.000 C 83.425 68.000 86.897 77.338 91.437 88.750 L 99.693 109.500 113.814 116.406 L 127.934 123.313 99.717 139.540 L 71.500 155.768 71.243 85.511 L 70.987 15.254 51.743 8.613 C 41.159 4.960 32.163 1.978 31.750 1.986 C 31.338 1.994 31.008 41.713 31.018 90.250 "/></g>
</svg>
