<?xml version="1.0" standalone="no"?><!DOCTYPE svg PUBLIC "-//W3C//DTD SVG 1.1//EN" "http://www.w3.org/Graphics/SVG/1.1/DTD/svg11.dtd"><svg t="1725125200909" class="icon" viewBox="0 0 1024 1024" version="1.1" xmlns="http://www.w3.org/2000/svg" p-id="4276" xmlns:xlink="http://www.w3.org/1999/xlink" width="200" height="200"><path d="M339.968 605.277091c26.298182 0 78.661818-1.442909 150.946909-31.232 84.293818-34.722909 252.043636-97.745455 373.015273-162.443636 84.619636-45.242182 121.716364-105.146182 121.716363-185.716364A202.565818 202.565818 0 0 0 783.034182 23.272727H314.274909A291.002182 291.002182 0 0 0 23.272727 314.274909c0 160.674909 121.949091 291.002182 316.695273 291.002182z" fill="#39594D" p-id="4277"></path><path d="M419.234909 805.655273a194.885818 194.885818 0 0 1 120.180364-180.037818l147.642182-61.253819c149.317818-61.952 313.716364 47.755636 313.716363 209.454546a226.769455 226.769455 0 0 1-226.862545 226.769454l-159.837091-0.046545a194.885818 194.885818 0 0 1-194.839273-194.885818z" fill="#D18EE2" p-id="4278"></path><path d="M191.022545 643.630545A167.749818 167.749818 0 0 0 23.272727 811.380364v21.690181a167.749818 167.749818 0 0 0 335.499637 0v-21.690181a167.749818 167.749818 0 0 0-167.749819-167.749819z" fill="#FF7759" p-id="4279"></path></svg>