<?xml version="1.0" encoding="utf-8"?>
<!DOCTYPE svg PUBLIC "-//W3C//DTD SVG 20010904//EN" "http://www.w3.org/TR/2001/REC-SVG-20010904/DTD/svg10.dtd">
<svg version="1.0" xmlns="http://www.w3.org/2000/svg" width="202pt" height="202pt" viewBox="0 0 202 202" style="" preserveAspectRatio="xMidYMid meet">
<g fill="#4D6BFEFF" stroke="#4D6BFEFF">
<path d="M 133.863 50.671 C 132.102 55.016 131.638 64.373 132.982 68.446 C 133.646 70.457 136.417 74.879 139.140 78.272 C 144.364 84.782 145.123 88.282 141.765 90.385 C 138.892 92.183 133.911 88.656 118.891 74.184 C 104.133 59.966 102.964 57.975 107.106 54.116 C 108.265 53.036 108.913 51.668 108.546 51.074 C 107.827 49.912 104.328 50.232 92.000 52.587 C 87.875 53.376 79.100 54.437 72.500 54.945 C 55.607 56.248 47.331 59.578 39.277 68.315 C 34.727 73.252 33.098 76.062 29.796 84.669 C 27.967 89.434 27.559 92.510 27.562 101.500 C 27.565 112.595 28.284 116.258 32.275 125.500 C 46.139 157.605 83.114 171.587 115.233 156.871 C 123.025 153.301 125.180 152.777 135.233 152.010 C 152.479 150.695 154.140 149.101 143.500 144.074 C 139.925 142.385 137.000 140.719 137.000 140.374 C 137.000 140.028 139.232 136.733 141.961 133.053 C 149.549 122.817 156.138 107.323 158.349 94.518 C 159.544 87.603 159.594 87.522 163.666 86.018 C 174.010 82.197 182.264 72.988 183.518 63.869 C 184.365 57.708 183.161 55.922 179.797 58.354 C 178.534 59.267 176.600 60.661 175.500 61.451 C 172.970 63.270 158.398 66.317 155.595 65.613 C 154.436 65.322 149.330 61.205 144.249 56.464 L 135.010 47.843 133.863 50.671 M 60.698 91.476 C 74.252 95.777 83.896 103.647 97.193 121.255 C 102.139 127.805 108.768 136.165 111.924 139.832 C 115.080 143.500 118.204 147.513 118.866 148.750 C 120.017 150.900 119.903 150.999 116.285 150.978 C 111.521 150.950 105.746 148.347 97.677 142.589 C 89.902 137.041 80.113 131.812 78.902 132.561 C 77.446 133.460 77.863 137.593 79.750 140.969 C 81.437 143.987 81.430 144.151 79.559 145.550 C 73.632 149.978 61.149 143.539 51.599 131.128 C 45.850 123.658 40.574 113.905 38.582 107.068 C 36.990 101.602 36.427 90.906 37.667 89.667 C 39.335 87.998 53.163 89.084 60.698 91.476 M 119.546 95.028 C 125.107 98.466 131.655 110.078 129.851 113.303 C 127.255 117.941 117.000 113.294 117.000 107.480 C 117.000 103.790 115.411 101.264 111.970 99.485 C 109.217 98.061 108.098 95.235 109.667 93.667 C 111.013 92.320 116.355 93.056 119.546 95.028 "/></g>
</svg>
