<?xml version="1.0" encoding="utf-8"?>
<!DOCTYPE svg PUBLIC "-//W3C//DTD SVG 20010904//EN" "http://www.w3.org/TR/2001/REC-SVG-20010904/DTD/svg10.dtd">
<svg version="1.0" xmlns="http://www.w3.org/2000/svg" width="202pt" height="202pt" viewBox="0 0 202 202" style="" preserveAspectRatio="xMidYMid meet">
<g fill="#066AF3FF" stroke="#066AF3FF">
<path d="M 98.465 11.961 C 96.560 12.724 49.131 39.213 31.564 49.325 C 27.199 51.837 23.051 54.929 22.346 56.196 C 20.520 59.478 20.485 140.343 22.308 144.000 C 23.641 146.673 24.153 146.984 69.499 172.611 C 86.046 181.963 99.595 189.000 101.054 189.000 C 103.304 189.000 124.224 177.588 166.492 153.304 C 173.843 149.081 178.965 145.464 179.727 143.957 C 181.476 140.500 181.456 60.735 179.705 56.778 C 178.769 54.664 171.792 50.234 148.500 36.962 C 101.274 10.054 102.141 10.488 98.465 11.961 M 115.257 47.197 C 132.972 57.067 133.536 54.812 110.036 68.074 L 89.789 79.500 93.396 80.520 C 95.379 81.082 98.425 82.963 100.163 84.702 C 102.746 87.284 103.407 88.858 103.775 93.303 C 104.201 98.440 104.022 98.970 100.558 102.805 C 94.755 109.227 87.061 109.627 80.479 103.847 L 77.000 100.793 77.000 123.896 C 77.000 136.603 76.663 146.999 76.250 146.998 C 74.373 146.995 51.256 133.640 49.250 131.401 C 47.029 128.921 47.000 128.523 47.000 100.667 C 47.000 77.143 47.251 72.087 48.507 70.294 C 49.336 69.111 54.173 65.784 59.257 62.900 C 64.341 60.017 74.860 53.953 82.633 49.425 C 90.406 44.897 97.606 40.981 98.633 40.723 C 101.618 39.974 103.857 40.846 115.257 47.197 M 155.000 101.123 L 155.000 129.128 152.250 131.695 C 150.738 133.108 145.900 136.275 141.500 138.734 C 137.100 141.193 126.750 146.994 118.500 151.625 L 103.500 160.044 103.500 130.376 L 103.500 100.709 125.011 88.604 C 136.843 81.947 148.073 75.518 149.967 74.318 C 151.862 73.118 153.769 72.357 154.206 72.627 C 154.643 72.897 155.000 85.720 155.000 101.123 "/></g>
<g fill="#002A9AFF" stroke="#002A9AFF">
<path d="M 83.262 83.312 C 79.342 85.960 77.000 90.520 77.000 95.501 C 77.000 98.357 77.757 99.957 80.321 102.521 C 86.616 108.816 96.866 108.189 101.157 101.246 C 108.622 89.167 94.920 75.435 83.262 83.312 "/></g>
</svg>
