<?xml version="1.0" encoding="utf-8"?>
<!DOCTYPE svg PUBLIC "-//W3C//DTD SVG 20010904//EN" "http://www.w3.org/TR/2001/REC-SVG-20010904/DTD/svg10.dtd">
<svg version="1.0" xmlns="http://www.w3.org/2000/svg" width="202pt" height="202pt" viewBox="0 0 202 202" style="" preserveAspectRatio="xMidYMid meet">
<g fill="#1679FFFF" stroke="#1679FFFF">
<path d="M 70.500 47.403 C 65.488 49.615 63.660 52.488 63.256 58.787 C 62.738 66.866 65.030 70.206 73.765 74.099 C 84.341 78.813 85.864 82.197 81.919 92.206 C 79.602 98.084 79.699 101.696 82.450 112.054 C 84.038 118.034 84.056 118.931 82.647 122.302 C 81.113 125.973 79.198 127.278 73.549 128.500 C 71.926 128.852 68.602 131.134 66.163 133.573 C 61.873 137.864 61.750 138.159 62.368 142.667 C 63.312 149.556 65.856 153.265 70.698 154.815 C 76.559 156.690 81.606 155.055 88.698 148.984 C 91.900 146.242 95.947 143.740 97.729 143.401 C 101.194 142.740 104.803 144.535 114.225 151.605 C 122.465 157.789 131.126 156.502 134.990 148.521 C 137.968 142.370 137.656 136.766 134.117 132.805 C 131.482 129.855 130.632 129.545 124.208 129.182 L 117.181 128.785 110.735 134.781 C 103.496 141.516 99.707 142.934 95.192 140.599 C 90.657 138.254 86.805 133.191 87.613 130.636 C 89.477 124.740 90.898 123.800 103.500 120.116 C 107.350 118.991 111.519 117.350 112.763 116.469 C 116.226 114.020 119.001 107.704 118.994 102.290 C 118.981 91.025 114.153 84.124 104.837 82.057 C 95.551 79.996 91.371 78.110 90.149 75.427 C 89.517 74.040 89.000 68.944 89.000 64.101 C 89.000 56.591 88.665 54.798 86.720 51.912 C 82.872 46.202 76.949 44.556 70.500 47.403 "/></g>
<g fill="#1679FFFF" stroke="#1679FFFF">
<path d="M 120.120 47.153 C 114.817 48.677 112.301 50.791 110.536 55.201 C 108.673 59.859 109.204 64.022 112.203 68.265 C 116.084 73.756 122.044 75.262 128.768 72.452 C 135.267 69.737 137.000 67.366 137.000 61.194 C 137.000 54.580 134.456 49.919 129.583 47.606 C 125.795 45.809 124.936 45.767 120.120 47.153 "/></g>
<g fill="#1679FFFF" stroke="#1679FFFF">
<path d="M 45.096 89.208 C 38.200 92.915 36.529 101.667 41.331 108.924 C 46.126 116.170 56.211 116.569 62.682 109.769 C 68.191 103.981 67.779 96.747 61.615 91.063 C 58.454 88.148 49.037 87.090 45.096 89.208 "/></g>
<g fill="#1679FFFF" stroke="#1679FFFF">
<path d="M 140.000 90.174 C 132.335 95.326 131.182 104.382 137.400 110.600 C 141.767 114.967 146.792 115.866 152.873 113.366 C 158.814 110.924 161.290 106.583 160.693 99.657 C 160.093 92.696 156.070 88.831 148.819 88.249 C 144.447 87.898 142.877 88.241 140.000 90.174 "/></g>
<g fill="#1679FFFF" stroke="#1679FFFF">
<path d="M 152.616 128.657 C 147.772 133.501 148.060 140.462 153.265 144.348 C 160.960 150.093 171.922 142.794 169.585 133.481 C 167.717 126.040 157.997 123.276 152.616 128.657 "/></g>
<g fill="#1679FFFF" stroke="#1679FFFF">
<path d="M 92.923 25.923 C 85.573 33.274 92.585 46.078 102.586 43.568 C 110.205 41.655 112.762 31.609 107.077 25.923 C 102.961 21.807 97.039 21.807 92.923 25.923 "/></g>
<g fill="#1679FFFF" stroke="#1679FFFF">
<path d="M 33.661 128.612 C 27.937 134.336 29.861 143.262 37.354 145.741 C 43.953 147.925 51.000 143.271 51.000 136.728 C 51.000 133.154 48.561 128.371 46.055 127.030 C 42.347 125.045 36.478 125.794 33.661 128.612 "/></g>
<g fill="#1679FFFF" stroke="#1679FFFF">
<path d="M 92.901 163.106 C 85.773 170.737 92.613 183.071 102.585 180.568 C 110.068 178.690 112.661 168.507 107.077 162.923 C 102.864 158.710 96.936 158.786 92.901 163.106 "/></g>
<g fill="#1679FFFF" stroke="#1679FFFF">
<path d="M 155.315 56.464 C 151.967 57.920 149.000 62.422 149.000 66.046 C 149.000 69.106 151.922 73.644 154.712 74.915 C 161.892 78.186 170.000 73.458 170.000 66.000 C 170.000 62.313 166.983 57.891 163.466 56.421 C 159.382 54.715 159.335 54.715 155.315 56.464 "/></g>
<g fill="#1679FFFF" stroke="#1679FFFF">
<path d="M 36.327 55.721 C 33.346 56.267 29.331 60.486 28.712 63.724 C 28.091 66.974 29.414 70.732 32.241 73.750 C 35.496 77.225 42.258 76.896 46.077 73.077 C 53.267 65.887 46.510 53.858 36.327 55.721 "/></g>
<g fill="#1679FFFF" stroke="#1679FFFF">
<path d="M 11.695 96.111 C 7.064 98.805 7.731 106.364 12.715 107.679 C 17.989 109.072 22.000 106.568 22.000 101.884 C 22.000 96.717 16.220 93.479 11.695 96.111 "/></g>
<g fill="#1679FFFF" stroke="#1679FFFF">
<path d="M 138.655 170.829 C 136.394 173.327 136.554 178.287 138.967 180.470 C 143.155 184.260 150.000 181.391 150.000 175.845 C 150.000 170.063 142.392 166.699 138.655 170.829 "/></g>
<g fill="#1679FFFF" stroke="#1679FFFF">
<path d="M 52.174 171.314 C 48.717 174.994 49.632 179.244 54.424 181.763 C 58.825 184.076 64.965 178.896 63.320 174.259 C 61.370 168.762 55.923 167.324 52.174 171.314 "/></g>
<g fill="#1679FFFF" stroke="#1679FFFF">
<path d="M 52.000 20.000 C 47.910 24.090 50.954 31.000 56.845 31.000 C 63.110 31.000 65.800 22.237 60.600 18.765 C 58.500 17.363 53.989 18.011 52.000 20.000 "/></g>
<g fill="#1679FFFF" stroke="#1679FFFF">
<path d="M 182.189 97.039 C 178.373 100.593 180.101 107.347 185.000 108.028 C 189.980 108.721 193.000 106.419 193.000 101.929 C 193.000 95.938 186.518 93.006 182.189 97.039 "/></g>
<g fill="#1679FFFF" stroke="#1679FFFF">
<path d="M 140.000 19.778 C 134.981 21.394 133.381 27.381 137.000 31.000 C 141.090 35.090 148.000 32.046 148.000 26.155 C 148.000 22.165 143.565 18.630 140.000 19.778 "/></g>
<g fill="#1679FFFF" stroke="#1679FFFF">
<path d="M 97.411 195.371 C 96.299 198.268 97.432 200.500 100.014 200.500 C 102.110 200.500 102.500 200.029 102.500 197.500 C 102.500 195.148 102.013 194.431 100.246 194.180 C 98.923 193.992 97.751 194.485 97.411 195.371 "/></g>
<g fill="#1679FFFF" stroke="#1679FFFF">
<path d="M 98.163 1.878 C 97.427 2.345 96.977 3.800 97.163 5.113 C 97.416 6.902 98.126 7.500 100.000 7.500 C 101.874 7.500 102.584 6.902 102.837 5.113 C 103.126 3.072 101.707 1.031 100.000 1.031 C 99.725 1.031 98.898 1.412 98.163 1.878 "/></g>
<g fill="#1679FFFF" stroke="#1679FFFF">
<path d="M 12.494 147.009 C 11.282 148.970 13.083 152.000 15.460 152.000 C 17.959 152.000 19.294 149.930 18.362 147.500 C 17.714 145.814 13.454 145.457 12.494 147.009 "/></g>
<g fill="#1679FFFF" stroke="#1679FFFF">
<path d="M 13.011 51.487 C 11.248 53.611 12.513 56.000 15.401 56.000 C 17.912 56.000 19.757 53.034 18.506 51.009 C 17.580 49.512 14.422 49.787 13.011 51.487 "/></g>
<g fill="#1679FFFF" stroke="#1679FFFF">
<path d="M 180.709 50.624 C 180.319 51.014 180.000 52.383 180.000 53.667 C 180.000 55.604 180.521 56.000 183.066 56.000 C 185.822 56.000 186.101 55.721 185.816 53.250 C 185.506 50.554 182.384 48.949 180.709 50.624 "/></g>
<g fill="#1679FFFF" stroke="#1679FFFF">
<path d="M 180.389 147.430 C 179.393 150.025 180.788 152.169 183.246 151.820 C 184.898 151.585 185.500 150.833 185.500 149.000 C 185.500 147.167 184.898 146.415 183.246 146.180 C 181.893 145.988 180.750 146.488 180.389 147.430 "/></g>
</svg>
