<?xml version="1.0" encoding="utf-8"?>
<!DOCTYPE svg PUBLIC "-//W3C//DTD SVG 20010904//EN" "http://www.w3.org/TR/2001/REC-SVG-20010904/DTD/svg10.dtd">
<svg version="1.0" xmlns="http://www.w3.org/2000/svg" width="204pt" height="202pt" viewBox="0 0 204 202" style="" preserveAspectRatio="xMidYMid meet">
<g fill="#0055DFFF" stroke="#0055DFFF">
<path d="M 142.522 10.877 C 154.758 19.124 162.845 28.876 168.848 42.619 C 173.541 53.364 175.115 60.347 175.696 73.000 C 176.671 94.216 170.823 110.231 157.044 124.085 C 144.996 136.198 132.467 142.000 118.356 142.000 C 99.586 142.000 86.744 129.871 85.300 110.780 L 84.732 103.271 81.322 104.040 C 69.623 106.679 58.398 119.560 53.908 135.500 C 51.599 143.698 52.073 159.255 54.868 167.032 C 63.086 189.893 86.658 203.244 112.979 199.943 C 130.874 197.700 150.326 189.257 166.000 176.931 C 182.188 164.201 192.669 148.920 198.673 129.297 C 201.154 121.189 201.370 119.090 201.432 102.500 L 201.498 84.500 197.696 73.500 C 192.561 58.647 188.330 50.126 180.908 39.691 C 169.388 23.496 153.231 10.960 139.522 7.581 C 137.193 7.007 137.846 7.726 142.522 10.877 "/></g>
<g fill="#B3DDF2FF" stroke="#B3DDF2FF">
<path d="M 95.015 3.151 C 69.777 5.785 46.952 15.590 30.974 30.663 C 24.936 36.359 15.608 48.627 14.813 51.917 C 14.641 52.629 15.983 50.955 17.795 48.198 C 22.564 40.942 29.991 37.843 37.662 39.909 C 46.619 42.321 54.739 51.501 55.735 60.342 C 56.154 64.057 55.776 65.107 52.608 69.034 C 37.850 87.328 33.361 95.236 29.845 109.140 C 25.657 125.704 28.870 146.048 38.116 161.509 C 48.804 179.382 70.036 196.208 84.793 198.502 C 88.029 199.004 87.611 198.630 81.500 195.551 C 71.391 190.457 65.656 185.859 61.211 179.284 C 54.670 169.606 52.690 163.112 52.588 151.000 C 52.488 139.046 53.731 133.519 58.683 123.910 C 64.114 113.372 68.208 109.848 82.992 102.984 C 83.813 102.603 84.889 100.882 85.383 99.158 C 86.539 95.129 95.771 84.461 101.232 80.846 C 103.559 79.306 107.803 77.560 110.664 76.966 C 121.927 74.628 134.581 62.800 138.526 50.923 C 143.710 35.313 135.696 17.145 118.737 6.064 C 111.873 1.579 111.049 1.478 95.015 3.151 "/></g>
<g fill="#00BCFFFF" stroke="#00BCFFFF">
<path d="M 128.594 8.839 C 139.253 15.683 147.636 28.110 149.907 40.434 C 153.286 58.777 148.801 73.297 136.043 85.309 C 124.641 96.045 109.513 102.120 93.505 102.391 C 85.740 102.523 85.494 102.602 85.293 105.013 C 85.180 106.381 85.541 110.375 86.097 113.889 C 90.944 144.544 125.488 151.380 153.786 127.284 C 166.756 116.241 176.008 95.416 175.996 77.292 C 175.980 52.692 163.238 25.516 146.235 13.818 C 142.182 11.029 132.227 7.079 125.500 5.591 C 123.149 5.070 123.819 5.773 128.594 8.839 "/></g>
<g fill="#0055DFFF" stroke="#0055DFFF">
<path d="M 29.000 39.648 C 23.011 42.023 20.788 43.746 17.689 48.414 C -1.326 77.052 -3.565 111.900 11.649 142.394 C 20.346 159.823 34.105 175.759 48.792 185.416 C 56.792 190.675 70.966 196.858 76.790 197.630 C 80.181 198.080 79.920 197.824 73.758 194.655 C 58.541 186.828 46.685 175.801 38.123 161.509 C 28.873 146.068 25.655 125.711 29.845 109.140 C 33.353 95.268 37.911 87.228 52.503 69.172 C 57.494 62.995 56.877 56.772 50.435 48.326 C 45.801 42.251 34.240 37.570 29.000 39.648 "/></g>
<g fill="#008DF0FF" stroke="#008DF0FF">
<path d="M 96.500 134.500 L 98.000 136.000 96.500 134.500 L 95.000 133.000 96.500 134.500 "/></g>
</svg>
