<?xml version="1.0" standalone="no"?><!DOCTYPE svg PUBLIC "-//W3C//DTD SVG 1.1//EN" "http://www.w3.org/Graphics/SVG/1.1/DTD/svg11.dtd"><svg t="1728980827149" class="icon" viewBox="0 0 1024 1024" version="1.1" xmlns="http://www.w3.org/2000/svg" p-id="4347" xmlns:xlink="http://www.w3.org/1999/xlink" width="200" height="200"><path d="M291.669333 809.194667s86.933333-9.664 91.754667-11.264c4.842667-1.621333 94.997333 3.2 94.997333 3.2l57.92 14.506666 53.12 19.328 14.506667 4.842667 78.869333-29.013333 94.976-14.485334 64.384 1.621334 49.877334 6.442666 20.949333 6.442667-1.621333 86.912-43.477334-11.264-83.712-6.442667-57.941333 4.821334-49.877333 11.306666-45.056 14.464-32.213334 12.885334-67.626666-25.770667-82.069334-16.106667h-94.997333l-62.762667 11.285334V809.173333z" fill="#1B3882" fill-opacity=".5" p-id="4348"></path><path d="M598.869333 938.666667c-146.346667-80.576-301.76-32.256-303.338666-31.765334l-17.536 5.589334v-110.954667l9.301333-2.986667c6.762667-2.197333 167.744-52.544 324.501333 33.770667l-12.928 23.530667c-125.802667-69.248-258.282667-43.264-294.016-34.304v55.04c46.698667-11.093333 178.24-32.362667 306.944 38.506666l-12.928 23.530667V938.666667z" fill="#1B3882" p-id="4349"></path><path d="M597.056 938.666667l-12.928-23.509334c128.704-70.890667 260.266667-49.642667 306.965333-38.528v-55.04c-35.712-8.981333-168.234667-34.944-294.037333 34.325334l-12.928-23.530667c156.757333-86.314667 317.738667-35.989333 324.48-33.792l9.322667 2.986667v111.018666l-17.536-5.696c-1.536-0.490667-156.949333-48.810667-303.36 31.786667z" fill="#1B3882" p-id="4350"></path><path d="M765.546667 685.610667a35.114667 35.114667 0 0 0-10.24-25.258667 31.914667 31.914667 0 0 0-24.533334-9.898667 38.634667 38.634667 0 0 0-24.96 11.370667c-6.805333 8.234667-10.112 16.810667-10.069333 26.56a33.92 33.92 0 0 0 9.941333 24.533333c6.805333 7.253333 15.125333 10.56 24.96 9.877334 9.578667 0.042667 17.813333-3.84 24.554667-11.349334 6.890667-7.530667 10.304-16.170667 10.389333-25.877333l-0.042666 0.042667zM494.485333 711.466667c6.890667-7.509333 10.282667-15.744 10.24-25.493334a38.549333 38.549333 0 0 0-10.154666-26.346666 35.2 35.2 0 0 0-24.554667-8.810667c-10.026667 1.024-18.304 4.544-24.96 10.645333a38.976 38.976 0 0 0-10.304 26.56c0 9.728 3.434667 18.048 10.24 24.938667 6.570667 7.253333 14.848 10.496 24.661333 9.877333 10.112-0.32 18.282667-3.84 24.789334-11.370666h0.042666z" fill="#1B3882" fill-opacity=".5" p-id="4351"></path><path d="M596.544 808.704c-26.88 0-53.269333-2.24-73.493333-7.424-54.4-13.973333-97.706667-39.146667-132.394667-77.056-36.010667-39.402667-38.293333-77.397333-40.704-117.610667-0.32-5.141333-0.64-10.389333-1.024-15.701333-3.221333-44.522667-24.256-114.090667-24.490667-114.773333l-1.642666-5.44 3.349333-4.608c30.954667-42.154667 69.12-72.256 116.778667-92.138667 43.733333-18.24 95.829333-27.776 159.232-29.162667 105.536-6.186667 220.586667 37.717333 273.664 104.426667l3.370666 4.202667-24.042666 112.064c-0.256 6.058667-2.048 37.589333-10.730667 102.058666-10.197333 75.52-103.466667 118.741333-151.402667 130.986667-24.32 6.272-60.885333 10.176-96.512 10.176h0.064zM347.946667 475.029333c5.205333 17.856 20.864 74.176 23.765333 114.176 0.405333 5.418667 0.725333 10.773333 1.024 16 2.346667 39.210667 4.202667 70.186667 34.773333 103.637334 31.573333 34.538667 71.210667 57.578667 121.194667 70.378666 42.368 10.88 118.741333 7.509333 158.698667-2.773333 34.410667-8.810667 125.632-46.186667 134.485333-112.042667 9.344-69.290667 10.56-100.565333 10.602667-100.885333v-0.981333l22.186666-103.338667c-34.901333-67.029333-55.616-80.768-99.989333-97.493333-46.805333-17.685333-103.850667 2.901333-151.402667 5.717333h-0.405333c-121.237333 2.645333-210.133333-36.224-254.976 107.562667l0.064 0.042666z" fill="#1B3882" p-id="4352"></path><path d="M834.922667 467.861333c8.64 22.250667 12.309333 33.386667 20.394666 53.76 0 0 21.44-34.432 28.181334-59.029333 6.826667-24.874667 2.645333-56.554667-2.688-86.186667-13.354667-49.706667-23.744-53.546667-63.872-82.986666a336.32 336.32 0 0 0-60.714667-32.554667c-49.28-18.56-98.752-28.864-148.544-31.018667-49.344-0.853333-99.136 6.549333-149.013333 22.058667-23.189333 8.064-43.861333 17.706667-62.144 28.906667-41.706667 26.986667-70.741333 64.96-86.890667 113.728-4.352 18.346667-11.242667 35.968-9.536 52.970666 7.786667 77.973333 58.666667 112.213333 55.168 93.418667-4.522667-24.256-1.621333-38.570667 4.608-61.738667 11.818667-43.84 39.765333-76.245333 83.925333-96.853333h0.128c8.597333-2.432 52.138667-27.157333 109.930667 2.410667 15.36 6.570667 42.197333 24.384 55.616 23.978666 13.461333-0.405333 32.853333-13.376 46.933333-22.186666 26.496-16.597333 51.584-22.293333 84.736-11.776 48.192 15.168 77.76 49.429333 93.781334 93.141333v-0.042667z" fill="#1B3882" p-id="4353"></path><path d="M123.989333 428.970667l36.245334 10.666666 41.557333-2.154666 29.845333-20.266667 32-28.778667 23.424-32 29.866667-30.890666 28.757333-18.133334 39.402667-8.533333-26.666667 46.890667-22.357333 22.357333-46.890667 65.002667-21.290666 32-24.533334 17.045333L208.213333 505.6s-30.933333 6.4-34.090666 7.466667c-3.178667 1.066667-28.778667 5.333333-28.778667 5.333333l-22.357333-1.066667-17.066667-5.333333 16-32 2.133333-23.445333v-27.690667l-0.042666 0.085333z" fill="#1B3882" fill-opacity=".5" p-id="4354"></path><path d="M216.704 244.672l-3.221333 24.469333-8.512 17.066667-10.645334 16-26.666666 15.957333 32 15.978667 35.157333 13.866667 36.245333 7.466666 15.978667 1.066667 38.378667-26.666667 40.490666-36.224-13.866666-4.266666-50.069334-5.312-37.312-13.866667-26.666666-13.824-21.290667-11.733333z" fill="#1B3882" fill-opacity=".5" p-id="4355"></path><path d="M135.808 527.466667a343.68 343.68 0 0 1-35.562667-1.962667l-23.466666-2.688 11.562666-7.424 6.186667-6.677333c0.832-1.28 3.285333-5.589333 7.36-14.634667v-0.085333c6.570667-14.122667 8.853333-37.802667 6.848-70.336l-1.386667-21.866667 16.853334 13.952c17.642667 14.592 39.744 18.090667 67.52 10.56 24.832-7.061333 51.84-30.250667 80.213333-68.8 26.090667-37.546667 63.637333-62.997333 111.68-75.712l4.522667-1.194667 30.378666 23.658667-27.306666-1.962667c-2.538667 2.453333-5.098667 5.098667-7.424 8l-0.533334 0.682667-0.704 0.618667c-15.658667 27.818667-38.08 55.296-60.501333 85.354666l-0.298667 0.554667c-3.456 6.037333-6.997333 12.288-10.837333 18.517333v0.298667l-1.258667 2.026667c-22.933333 37.312-48.170667 65.28-75.029333 83.178666-24.64 17.258667-57.813333 25.984-98.816 25.984v-0.042666z m-19.413333-19.605334c46.293333 2.986667 82.410667-4.330667 107.456-21.973333l0.170666-0.128c24.32-16.149333 47.424-41.792 68.778667-76.16a9.429333 9.429333 0 0 1 1.6-2.88c3.818667-6.144 7.381333-12.458667 10.88-18.56v-0.106667c15.146667-29.077333 32.618667-54.933333 52.074667-77.077333a163.072 163.072 0 0 0-69.845334 57.429333l-0.128 0.213334c-31.36 42.752-60.970667 67.584-90.517333 75.989333-26.069333 7.04-48.981333 5.76-68.394667-3.712 0.405333 26.752-2.645333 46.848-9.216 61.013333-0.981333 2.24-1.92 4.202667-2.773333 5.973334h-0.085333z" fill="#1B3882" p-id="4356"></path><path d="M137.941333 527.466667a343.68 343.68 0 0 1-35.562666-1.984l1.962666-18.837334c53.162667 5.610667 94.037333-1.365333 121.6-20.757333l0.213334-0.128c24.32-16.149333 47.445333-41.792 68.778666-76.16a10.709333 10.709333 0 0 1 3.050667-4.458667l12.373333 14.314667a8.533333 8.533333 0 0 0 2.837334-5.461333l-0.192 2.282666-1.194667 2.026667c-22.954667 37.312-48.192 65.28-75.029333 83.157333-24.661333 17.28-57.813333 26.005333-98.837334 26.005334zM299.882667 345.856c-4.032 0.277333-8.042667 0.490667-12.074667 0.64-31.893333 1.109333-65.941333-7.786667-101.418667-26.453333 30.72-19.84 39.274667-42.496 38.058667-62.890667 7.338667 5.802667 14.997333 10.901333 22.954667 15.253333 52.181333 29.397333 107.306667 34.048 201.514666 7.68l-6.4-17.834666c-89.514667 24.704-138.026667 20.629333-185.941333-6.4a147.498667 147.498667 0 0 1-37.482667-29.44l-1.301333-1.386667-19.413333-21.034667 3.669333 27.029334c0.533333 2.24 11.669333 54.976-39.189333 80.704l-15.402667 7.786666 14.848 8.810667c41.6 24.746667 81.962667 37.269333 120 37.269333l17.578667-19.669333v-0.064zM539.562667 636.544c-5.909333 0-11.456-3.669333-14.186667-9.856-12.650667-28.885333-22.592-40.938667-37.568-59.136-15.189333-18.389333-47.488-49.536-52.8-54.058667-7.125333-6.037333-9.130667-14.272-4.885333-19.946666 2.133333-2.816 8.512-8.490667 21.568 0.170666 26.496 17.557333 85.269333 70.293333 101.162666 112.661334 5.802667 15.402667 0 25.856-7.786666 29.034666a14.208 14.208 0 0 1-5.546667 1.066667l0.042667 0.064zM653.866667 637.248a14.357333 14.357333 0 0 1-5.674667-1.152c-7.786667-3.264-13.44-13.824-7.424-29.141333 16.426667-42.133333 75.861333-94.122667 102.592-111.36 13.184-8.490667 19.456-2.773333 21.546667 0.106666 4.224 5.717333 2.112 13.909333-5.098667 19.861334-5.354667 4.48-38.058667 35.114667-53.461333 53.376-15.210667 18.026667-25.28 29.930667-38.336 58.688-2.773333 6.101333-8.277333 9.664-14.08 9.664l-0.064-0.042667z" fill="#1B3882" p-id="4357"></path><path d="M712.234667 175.168c0.384-21.973333-10.304-40.874667-32.085334-56.725333-22.144-15.530667-48.597333-23.36-79.338666-23.573334-30.72-0.213333-57.066667 7.338667-78.784 22.762667-21.824 15.573333-32.96 34.282667-33.237334 56.064 0.085333 6.805333 0.682667 13.013333 1.514667 18.837333 81.493333-26.218667 154.453333-24.064 218.794667 6.485334 1.749333-8.128 2.816-16.064 3.136-23.893334v0.042667z" fill="#1B3882" fill-opacity=".5" p-id="4358"></path><path d="M371.605333 617.344l-0.426666-0.938667a71.829333 71.829333 0 0 1-2.773334-7.424l-2.261333-7.338666-15.082667 0.490666-1.152 12.650667c0.085333 0.490667 0.341333 1.706667 0.618667 3.84v0.469333c0.128 0.746667 0.170667 1.386667 0.32 2.005334a21.546667 21.546667 0 0 1-6.357333 16.725333c-4.352 4.608-10.026667 6.677333-17.493334 6.357333-9.258667-0.362667-12.352-4.053333-13.866666-6.826666-4.074667-7.36-4.352-11.306667-4.117334-13.013334 0.576-4.8 1.557333-9.856 2.944-14.954666 2.133333-7.978667 0.533333-17.237333-4.864-27.477334l-5.546666-10.517333a69.248 69.248 0 0 1-5.461334-14.890667c-1.173333-4.970667-0.853333-10.922667 0.896-17.770666 1.557333-6.037333 4.906667-10.773333 10.24-14.528 5.333333-3.584 11.669333-4.885333 19.242667-3.904l0.576 0.085333h0.576c7.424 0.042667 13.525333 0.768 18.176 2.026667-1.301333-7.253333-1.706667-14.805333-1.045333-22.506667a57.962667 57.962667 0 0 0-14.762667-4.16h-0.256l-3.669333-0.32a53.077333 53.077333 0 0 0-32.042667 7.338667c-10.56 6.186667-17.664 15.296-21.12 27.157333a65.6 65.6 0 0 0-1.109333 31.573333c0.256 1.621333 0.64 3.498667 1.258666 5.290667 1.642667 5.226667 4.373333 11.050667 8.128 17.322667 5.738667 9.429333 7.466667 12.522667 7.978667 13.546666l0.170667 0.362667c0.725333 1.28 0.853333 3.264 0.362666 5.866667l-0.192 0.853333c-0.533333 2.901333-1.066667 5.632-1.28 6.656-4.48 11.584-4.928 22.272-1.408 31.637333 3.584 9.92 9.898667 17.173333 18.837334 21.653334 5.205333 2.56 11.2 4.16 17.856 4.821333 3.626667 0.362667 7.424 0.426667 11.413333 0.192a37.141333 37.141333 0 0 0 30.378667-17.6c6.805333-10.24 8.981333-21.589333 6.613333-33.706667l-0.170667-1.066666h-0.128zM927.210667 514.261333a45.184 45.184 0 0 0-21.568-27.029333h-0.042667A51.349333 51.349333 0 0 0 874.666667 480.426667c-0.384 0-0.789333 0.106667-1.194667 0.149333l-3.584 0.426667h-0.298667a60.245333 60.245333 0 0 0-20.501333 7.616 20.970667 20.970667 0 0 0 0.213333 1.664c0.64 6.826667 0.32 13.589333-0.853333 20.181333l3.904-1.578667c4.970667-2.005333 11.733333-3.669333 20.629333-5.013333l0.490667-0.085333a21.973333 21.973333 0 0 1 18.389333 4.032c6.037333 4.394667 10.112 9.834667 12.437334 16.597333 1.92 6.357333 2.197333 11.818667 0.853333 16.64a106.453333 106.453333 0 0 1-5.610667 15.936c-2.453333 5.184-4.949333 10.24-7.424 14.848a35.242667 35.242667 0 0 0-3.925333 22.144c0.938667 6.805333 1.92 12.437333 3.029333 17.28 0.810667 3.349333 0.32 7.637333-1.429333 12.736l-0.085333 0.213333c-1.429333 4.586667-9.130667 7.04-13.589334 8.106667-10.197333 2.432-14.762667-1.28-17.493333-4.650667a30.293333 30.293333 0 0 1-6.72-19.776l0.170667-2.090666c0.234667-2.112 0.448-3.2 0.554666-3.584l-0.32-13.056-16.725333 0.405333-1.792 7.146667c-0.64 2.474667-1.429333 4.885333-2.474667 7.296l-0.426666 1.024-0.192 1.130666a46.485333 46.485333 0 0 0 7.253333 33.685334l0.170667 0.213333c7.381333 10.666667 17.941333 16.512 30.506666 16.96 3.370667 0.192 6.613333 0.085333 9.706667-0.170667 7.445333-0.682667 14.08-2.645333 19.733333-5.824 8.384-4.608 14.314667-11.989333 17.813334-21.973333 3.306667-9.792 2.645333-20.437333-1.962667-31.658667l-1.130667-6.613333-0.085333-0.512a11.818667 11.818667 0 0 1 0.576-7.04c1.749333-4.138667 4.117333-8.96 7.04-14.485333 3.797333-6.698667 6.250667-12.373333 7.594667-17.216 0.682667-2.133333 1.130667-4.032 1.258666-5.909334 1.749333-10.517333 1.066667-21.034667-2.069333-31.274666l0.106667-0.085334zM720.298667 195.989333c1.28-7.168 2.069333-13.909333 2.346666-20.693333 0.426667-25.130667-11.690667-46.869333-36.117333-64.64C662.954667 94.101333 634.453333 85.610667 601.813333 85.333333c-32.704-0.298667-61.077333 8.021333-84.394666 24.576-24.362667 17.408-36.906667 38.826667-37.205334 63.701334v0.213333c0.042667 4.970667 0.341333 9.941333 0.981334 15.146667a14.72 14.72 0 0 0-3.669334 8.938666v0.362667c0 8.405333 1.194667 16.810667 3.754667 24.96l0.042667 0.213333c3.498667 10.304 9.493333 20.096 17.856 29.141334l2.410666 2.581333 22.016 2.474667c18.773333 10.901333 43.882667 16.768 74.752 17.301333h3.989334c22.762667 0 42.666667-2.773333 59.242666-8.234667l0.426667-0.170666c6.229333-2.410667 12.266667-5.333333 18.048-8.682667 17.536 1.664 30.677333-6.976 37.44-24.554667l1.664-1.792-0.106667-2.517333c2.602667-7.957333 7.168-23.573333 1.173334-33.002667h0.042666zM528.426667 125.333333c19.968-14.186667 44.586667-21.248 73.237333-21.013333 28.693333 0.213333 53.546667 7.594667 73.813333 21.76 19.306667 14.016 28.522667 30.037333 28.202667 48.704a113.194667 113.194667 0 0 1-0.896 10.645333c-32.576-13.653333-67.328-20.458667-104.149333-20.458666-31.637333 0-64.746667 5.056-99.2 15.146666a155.946667 155.946667 0 0 1-0.256-6.4c0.256-18.709333 9.834667-34.56 29.248-48.384z m175.082666 88.96l-6.4 13.824s-8.384 12.074667-17.493333 10.538667l-3.541333-0.576-3.050667 1.877333c-5.546667 3.456-11.456 6.4-17.578667 8.768-15.424 5.056-34.538667 7.466667-56.725333 7.168-27.477333-0.533333-49.493333-5.461333-65.450667-14.72-0.490667-0.32-0.981333-0.64-1.429333-0.853333l-1.877333-1.173333-19.072-2.090667c-3.626667-4.266667-8.746667-13.205333-8.746667-13.205333l-5.248-15.146667-0.32-7.936c77.141333-24.298667 147.008-22.272 207.722667 5.994667 0.106667 1.130667-0.789333 7.509333-0.789334 7.509333z m5.674667 14.08V228.266667l0.128 0.128h-0.128z" fill="#1B3882" p-id="4359"></path></svg>