<?xml version="1.0" standalone="no"?><!DOCTYPE svg PUBLIC "-//W3C//DTD SVG 1.1//EN" "http://www.w3.org/Graphics/SVG/1.1/DTD/svg11.dtd"><svg t="1721454593328" class="icon" viewBox="0 0 1024 1024" version="1.1" xmlns="http://www.w3.org/2000/svg" p-id="5280" xmlns:xlink="http://www.w3.org/1999/xlink" width="200" height="200"><path d="M721.92 192c-78.976 0-140.715 59.477-196.608 135.04C448.512 229.248 384.299 192 307.456 192 150.784 192 30.72 395.947 30.72 611.755 30.72 746.795 96.043 832 205.483 832c78.762 0 135.424-37.12 236.16-213.205 0 0 41.984-74.112 70.826-125.184 10.155 16.341 20.779 33.92 32 52.821l47.232 79.445C683.691 779.82 734.976 832 827.82 832c106.666 0 165.973-86.357 165.973-224.213C993.792 381.78 871.04 192 721.92 192zM364.8 571.136c-81.621 128-109.867 156.715-155.307 156.715-46.805 0-74.624-41.088-74.624-114.347 0-156.672 78.123-316.885 171.264-316.885 50.432 0 92.587 29.098 157.142 121.514-61.312 94.038-98.432 153.003-98.432 153.003z m308.224-16.085l-56.49-94.251a1926.87 1926.87 0 0 0-44.033-68.608c50.902-78.55 92.843-117.717 142.806-117.717 103.68 0 186.666 152.746 186.666 340.309 0 71.51-23.424 113.024-71.936 113.024-46.506 0-68.693-30.72-157.013-172.8z" p-id="5281" fill="#1296db"></path></svg>