<?xml version="1.0" encoding="utf-8"?>
<!DOCTYPE svg PUBLIC "-//W3C//DTD SVG 20010904//EN" "http://www.w3.org/TR/2001/REC-SVG-20010904/DTD/svg10.dtd">
<svg version="1.0" xmlns="http://www.w3.org/2000/svg" width="202pt" height="202pt" viewBox="0 0 202 202" style="" preserveAspectRatio="xMidYMid meet">
<g fill="#2C2C2CFF" stroke="#2C2C2CFF">
<path d="M 62.461 19.861 C 57.483 22.896 50.956 31.014 47.221 38.812 C 41.336 51.101 42.704 59.839 52.855 74.787 C 58.339 82.861 58.716 84.856 55.623 89.414 C 54.237 91.456 52.817 95.236 52.468 97.813 C 52.118 100.391 51.589 103.400 51.292 104.500 C 50.870 106.063 51.232 105.900 52.949 103.750 C 56.228 99.644 60.870 99.949 64.896 104.535 C 68.686 108.851 68.892 110.290 65.537 109.014 C 59.910 106.875 53.007 112.906 54.459 118.693 C 54.801 120.056 56.164 122.174 57.488 123.401 L 59.895 125.632 57.332 131.066 C 52.141 142.069 50.627 152.786 53.347 159.282 C 55.170 163.637 62.089 169.693 68.694 172.717 C 71.683 174.086 74.347 174.987 74.614 174.719 C 74.881 174.452 74.112 171.368 72.904 167.867 C 70.295 160.303 69.261 146.769 70.910 141.772 C 71.542 139.859 73.186 137.234 74.565 135.939 L 77.072 133.584 75.421 137.534 C 74.208 140.437 73.887 143.474 74.208 148.992 C 74.727 157.904 76.310 161.624 80.898 164.713 C 87.435 169.113 98.482 166.785 99.696 160.750 C 100.405 157.229 101.595 157.229 102.304 160.750 C 104.042 169.385 121.442 168.886 125.640 160.081 C 128.132 154.852 128.647 142.485 126.579 137.534 L 124.928 133.584 127.435 135.939 C 128.814 137.234 130.458 139.859 131.090 141.772 C 132.739 146.769 131.705 160.303 129.096 167.867 C 127.888 171.368 127.119 174.452 127.386 174.719 C 127.653 174.987 130.317 174.086 133.306 172.717 C 139.911 169.693 146.830 163.637 148.653 159.282 C 151.380 152.767 149.858 142.057 144.633 131.000 C 142.113 125.669 142.091 125.454 143.900 124.000 C 148.620 120.206 148.774 114.540 144.253 110.984 C 141.454 108.783 137.914 108.441 134.859 110.076 C 132.995 111.073 132.936 110.982 134.046 108.826 C 138.138 100.882 144.926 98.586 149.051 103.750 C 150.768 105.900 151.130 106.063 150.708 104.500 C 150.411 103.400 149.882 100.391 149.532 97.813 C 149.183 95.236 147.736 91.417 146.318 89.327 C 143.179 84.701 143.428 83.820 151.428 71.199 C 158.680 59.760 160.179 53.156 157.474 44.556 C 155.178 37.257 149.659 28.720 143.723 23.284 C 137.820 17.879 134.318 16.889 131.856 19.929 C 128.923 23.551 128.007 28.538 126.973 46.500 C 125.477 72.502 125.816 71.869 114.621 69.557 C 105.051 67.580 96.929 67.584 87.314 69.570 C 76.664 71.770 76.809 71.987 75.774 52.265 C 74.504 28.055 71.955 17.992 67.095 18.004 C 66.218 18.006 64.132 18.842 62.461 19.861 M 101.000 142.000 C 109.244 142.000 110.313 141.778 112.473 139.618 L 114.855 137.236 116.076 140.184 C 117.101 142.657 117.042 143.386 115.714 144.714 C 111.327 149.102 90.673 149.102 86.286 144.714 C 84.958 143.386 84.899 142.657 85.924 140.184 L 87.145 137.236 89.527 139.618 C 91.687 141.778 92.756 142.000 101.000 142.000 "/></g>
<g fill="#2C2C2CFF" stroke="#2C2C2CFF">
<path d="M 77.000 170.666 C 77.000 173.382 80.007 177.903 83.671 180.698 C 87.280 183.451 87.583 183.500 101.000 183.500 C 114.417 183.500 114.720 183.451 118.329 180.698 C 121.993 177.903 125.000 173.382 125.000 170.666 C 125.000 169.543 123.644 169.792 118.750 171.811 C 113.273 174.070 111.077 174.389 101.000 174.389 C 90.923 174.389 88.727 174.070 83.250 171.811 C 78.356 169.792 77.000 169.543 77.000 170.666 "/></g>
</svg>
