<?xml version="1.0" encoding="utf-8"?>
<!DOCTYPE svg PUBLIC "-//W3C//DTD SVG 20010904//EN" "http://www.w3.org/TR/2001/REC-SVG-20010904/DTD/svg10.dtd">
<svg version="1.0" xmlns="http://www.w3.org/2000/svg" width="202pt" height="202pt" viewBox="0 0 202 202" style="" preserveAspectRatio="xMidYMid meet">
<g fill="#AE70FFFF" stroke="#AE70FFFF">
<path d="M 80.859 20.158 C 78.856 21.319 76.156 24.121 74.859 26.385 L 72.500 30.500 72.500 92.836 L 72.500 155.172 69.694 157.586 C 66.240 160.558 62.916 160.669 60.405 157.896 C 58.613 155.917 58.470 153.298 58.000 113.646 C 57.541 74.972 57.348 71.249 55.655 68.454 C 49.188 57.778 33.391 57.804 27.670 68.500 C 25.758 72.075 25.476 74.573 25.015 92.000 C 24.668 105.138 24.083 112.230 23.221 113.738 C 21.349 117.014 17.396 117.685 14.163 115.276 C 11.678 113.424 11.481 112.702 11.208 104.448 C 11.048 99.584 10.430 95.018 9.836 94.302 C 8.079 92.185 3.230 92.702 1.922 95.145 C 0.053 98.639 1.166 114.771 3.601 119.463 C 6.173 124.419 11.825 127.525 18.099 127.430 C 24.193 127.338 28.812 124.497 31.676 119.080 C 33.872 114.928 34.001 113.630 34.015 95.593 C 34.031 74.911 34.534 72.471 39.250 70.209 C 41.502 69.130 42.417 69.164 44.850 70.422 C 46.449 71.249 48.037 72.654 48.379 73.545 C 48.720 74.435 49.002 93.914 49.004 116.832 C 49.007 156.894 49.085 158.628 51.030 161.818 C 53.833 166.416 60.744 169.375 67.224 168.753 C 73.310 168.168 76.827 165.701 79.761 159.958 L 82.021 155.533 81.761 93.874 C 81.509 34.445 81.569 32.138 83.405 30.107 C 85.655 27.618 91.594 27.252 94.559 29.419 C 96.427 30.784 96.519 32.833 97.000 83.669 L 97.500 136.500 100.470 136.500 C 106.031 136.500 106.033 136.480 105.754 80.500 L 105.500 29.500 103.212 25.821 C 98.770 18.677 88.082 15.969 80.859 20.158 "/></g>
<g fill="#AE70FFFF" stroke="#AE70FFFF">
<path d="M 129.000 21.181 C 125.738 22.862 123.884 24.722 122.261 27.940 L 120.021 32.380 120.261 101.083 C 120.492 167.420 120.434 169.858 118.595 171.893 C 117.323 173.300 115.496 173.995 113.095 173.985 C 106.413 173.956 105.000 171.285 105.000 158.688 C 105.000 148.580 103.984 146.236 100.132 147.458 C 97.399 148.325 95.999 153.057 96.006 161.399 C 96.013 170.724 97.277 174.910 101.240 178.733 C 109.371 186.576 120.971 185.607 126.835 176.596 L 129.500 172.500 130.000 102.161 L 130.500 31.822 132.861 29.911 C 136.151 27.248 139.471 27.513 141.927 30.635 C 143.948 33.204 144.000 34.311 144.016 74.885 C 144.033 116.186 144.050 116.530 146.283 120.474 C 150.600 128.094 162.084 130.114 170.158 124.672 C 175.785 120.880 176.883 116.186 176.946 95.654 C 176.991 80.813 177.283 77.330 178.678 74.968 C 180.913 71.185 184.606 70.316 187.927 72.793 L 190.500 74.713 191.000 104.606 C 191.275 121.048 191.864 135.063 192.309 135.750 C 193.598 137.741 198.781 137.278 199.965 135.066 C 201.374 132.433 201.345 78.239 199.931 72.693 C 196.033 57.393 176.594 55.975 169.890 70.500 C 168.297 73.951 168.041 77.185 168.022 94.076 C 168.001 113.096 167.936 113.709 165.750 115.677 C 164.513 116.791 162.684 117.991 161.687 118.344 C 159.497 119.119 154.483 116.702 153.621 114.455 C 153.280 113.565 153.000 94.139 153.000 71.286 C 153.000 30.844 152.944 29.646 150.903 26.344 C 146.721 19.577 136.698 17.214 129.000 21.181 "/></g>
</svg>
