<?xml version="1.0" encoding="utf-8"?>
<!DOCTYPE svg PUBLIC "-//W3C//DTD SVG 20010904//EN" "http://www.w3.org/TR/2001/REC-SVG-20010904/DTD/svg10.dtd">
<svg version="1.0" xmlns="http://www.w3.org/2000/svg" width="202pt" height="202pt" viewBox="0 0 202 202" style="" preserveAspectRatio="xMidYMid meet">
<g fill="#FF6F00FF" stroke="#FF6F00FF">
<path d="M 31.000 101.000 L 31.000 116.000 106.000 116.000 L 181.000 116.000 181.000 101.000 L 181.000 86.000 106.000 86.000 L 31.000 86.000 31.000 101.000 "/></g>
<g fill="#FFA301FF" stroke="#FFA301FF">
<path d="M 121.000 71.000 L 121.000 86.000 151.000 86.000 L 181.000 86.000 181.000 71.000 L 181.000 56.000 151.000 56.000 L 121.000 56.000 121.000 71.000 "/></g>
<g fill="#FFA301FF" stroke="#FFA301FF">
<path d="M 31.000 71.000 L 31.000 86.000 61.000 86.000 L 91.000 86.000 91.000 71.000 L 91.000 56.000 61.000 56.000 L 31.000 56.000 31.000 71.000 "/></g>
<g fill="#191D1DFF" stroke="#191D1DFF">
<path d="M 21.000 101.000 L 21.000 176.000 26.000 176.000 L 31.000 176.000 31.000 101.000 L 31.000 26.000 26.000 26.000 L 21.000 26.000 21.000 101.000 "/></g>
<g fill="#FE0107FF" stroke="#FE0107FF">
<path d="M 151.000 161.000 L 151.000 176.000 166.000 176.000 L 181.000 176.000 181.000 161.000 L 181.000 146.000 166.000 146.000 L 151.000 146.000 151.000 161.000 "/></g>
<g fill="#FE0107FF" stroke="#FE0107FF">
<path d="M 31.000 161.000 L 31.000 176.000 46.000 176.000 L 61.000 176.000 61.000 161.000 L 61.000 146.000 46.000 146.000 L 31.000 146.000 31.000 161.000 "/></g>
<g fill="#FE4900FF" stroke="#FE4900FF">
<path d="M 151.000 131.000 L 151.000 146.000 166.000 146.000 L 181.000 146.000 181.000 131.000 L 181.000 116.000 166.000 116.000 L 151.000 116.000 151.000 131.000 "/></g>
<g fill="#FE4900FF" stroke="#FE4900FF">
<path d="M 91.000 131.000 L 91.000 146.000 106.000 146.000 L 121.000 146.000 121.000 131.000 L 121.000 116.000 106.000 116.000 L 91.000 116.000 91.000 131.000 "/></g>
<g fill="#FE4900FF" stroke="#FE4900FF">
<path d="M 31.000 131.000 L 31.000 146.000 46.000 146.000 L 61.000 146.000 61.000 131.000 L 61.000 116.000 46.000 116.000 L 31.000 116.000 31.000 131.000 "/></g>
<g fill="#FECE00FF" stroke="#FECE00FF">
<path d="M 151.000 41.000 L 151.000 56.000 166.000 56.000 L 181.000 56.000 181.000 41.000 L 181.000 26.000 166.000 26.000 L 151.000 26.000 151.000 41.000 "/></g>
<g fill="#FECE00FF" stroke="#FECE00FF">
<path d="M 31.000 41.000 L 31.000 56.000 46.000 56.000 L 61.000 56.000 61.000 41.000 L 61.000 26.000 46.000 26.000 L 31.000 26.000 31.000 41.000 "/></g>
<g fill="#191D1DFF" stroke="#191D1DFF">
<path d="M 141.000 146.000 L 141.000 176.000 146.000 176.000 L 151.000 176.000 151.000 146.000 L 151.000 116.000 146.000 116.000 L 141.000 116.000 141.000 146.000 "/></g>
<g fill="#191D1DFF" stroke="#191D1DFF">
<path d="M 81.000 131.000 L 81.000 146.000 86.000 146.000 L 91.000 146.000 91.000 131.000 L 91.000 116.000 86.000 116.000 L 81.000 116.000 81.000 131.000 "/></g>
<g fill="#191D1DFF" stroke="#191D1DFF">
<path d="M 111.000 71.000 L 111.000 86.000 116.000 86.000 L 121.000 86.000 121.000 71.000 L 121.000 56.000 116.000 56.000 L 111.000 56.000 111.000 71.000 "/></g>
<g fill="#191D1DFF" stroke="#191D1DFF">
<path d="M 141.000 41.000 L 141.000 56.000 146.000 56.000 L 151.000 56.000 151.000 41.000 L 151.000 26.000 146.000 26.000 L 141.000 26.000 141.000 41.000 "/></g>
</svg>
