<?xml version="1.0" encoding="utf-8"?>
<!DOCTYPE svg PUBLIC "-//W3C//DTD SVG 20010904//EN" "http://www.w3.org/TR/2001/REC-SVG-20010904/DTD/svg10.dtd">
<svg version="1.0" xmlns="http://www.w3.org/2000/svg" width="202pt" height="202pt" viewBox="0 0 202 202" style="" preserveAspectRatio="xMidYMid meet">
<g fill="#2C2C2CFF" stroke="#2C2C2CFF">
<path d="M 23.031 62.939 C 19.318 70.294 14.428 86.847 15.632 87.984 C 16.512 88.815 176.871 131.936 180.440 132.301 C 182.041 132.465 182.765 131.186 184.573 125.000 C 185.779 120.875 186.480 117.218 186.133 116.873 C 185.785 116.528 167.275 111.391 145.000 105.456 C 122.725 99.521 104.378 94.582 104.229 94.479 C 104.081 94.376 105.773 91.189 107.991 87.396 C 111.611 81.206 111.843 80.423 110.262 79.750 C 109.293 79.337 90.848 74.308 69.273 68.574 C 47.698 62.841 29.154 57.866 28.065 57.521 C 26.416 56.997 25.571 57.907 23.031 62.939 "/></g>
<g fill="#2C2C2CFF" stroke="#2C2C2CFF">
<path d="M 51.775 29.497 C 43.138 35.291 28.580 50.020 30.115 51.412 C 30.806 52.038 187.452 93.882 187.800 93.533 C 188.257 93.076 184.860 77.391 184.005 76.008 C 183.633 75.405 173.467 72.267 161.414 69.033 C 149.361 65.799 136.425 62.305 132.666 61.269 L 125.833 59.386 132.520 53.130 C 136.198 49.689 139.048 46.740 138.854 46.576 C 138.659 46.413 121.175 41.690 100.000 36.081 C 78.825 30.472 60.816 25.687 59.981 25.447 C 59.145 25.208 55.452 27.030 51.775 29.497 "/></g>
<g fill="#2C2C2CFF" stroke="#2C2C2CFF">
<path d="M 14.013 102.142 C 14.029 111.058 17.381 128.074 19.414 129.561 C 20.224 130.153 28.899 132.770 38.693 135.378 C 48.487 137.986 79.181 146.200 106.903 153.631 L 157.305 167.143 164.124 160.377 C 167.875 156.655 170.817 153.483 170.662 153.329 C 170.507 153.174 153.190 148.381 132.178 142.678 C 111.167 136.975 93.713 132.046 93.391 131.725 C 93.070 131.404 93.544 127.903 94.444 123.944 C 95.345 119.986 95.950 116.629 95.791 116.483 C 95.522 116.237 22.921 96.907 16.750 95.438 L 14.000 94.783 14.013 102.142 "/></g>
<g fill="#2C2C2CFF" stroke="#2C2C2CFF">
<path d="M 23.000 138.669 C 23.000 140.347 29.744 151.121 34.511 157.059 C 43.506 168.262 58.994 178.625 74.565 183.858 C 90.421 189.187 108.837 189.329 125.466 184.249 L 131.191 182.500 111.941 177.500 C 101.353 174.750 92.085 171.905 91.345 171.179 C 90.476 170.325 90.000 167.416 90.000 162.957 L 90.000 156.056 84.750 154.555 C 76.832 152.291 23.878 138.000 23.409 138.000 C 23.184 138.000 23.000 138.301 23.000 138.669 "/></g>
<g fill="#2C2C2CFF" stroke="#2C2C2CFF">
<path d="M 88.660 15.048 C 82.183 16.135 70.000 19.877 70.002 20.779 C 70.003 21.344 164.880 47.029 168.362 47.406 C 170.252 47.612 157.251 34.567 151.414 30.401 C 133.643 17.721 108.861 11.657 88.660 15.048 "/></g>
</svg>
