<?xml version="1.0" encoding="utf-8"?>
<!DOCTYPE svg PUBLIC "-//W3C//DTD SVG 20010904//EN" "http://www.w3.org/TR/2001/REC-SVG-20010904/DTD/svg10.dtd">
<svg version="1.0" xmlns="http://www.w3.org/2000/svg" width="202pt" height="202pt" viewBox="0 0 202 202" style="" preserveAspectRatio="xMidYMid meet">
<g fill="#605BECFF" stroke="#605BECFF">
<path d="M 75.826 15.750 C 75.010 16.713 69.428 25.930 63.421 36.233 L 52.500 54.965 41.361 54.983 C 32.222 54.997 29.851 55.314 28.159 56.750 C 25.553 58.960 13.994 79.389 14.017 81.744 C 14.026 82.710 19.100 92.269 25.292 102.987 L 36.550 122.474 31.080 132.410 L 25.611 142.346 29.947 150.511 C 32.332 155.002 35.479 160.437 36.939 162.588 L 39.594 166.500 63.353 167.000 L 87.112 167.500 92.852 177.500 L 98.592 187.500 113.225 187.776 L 127.858 188.053 130.288 184.776 C 131.625 182.974 137.082 173.738 142.416 164.250 L 152.113 147.000 162.902 147.000 C 175.559 147.000 174.252 147.924 182.450 133.183 C 187.622 123.883 188.075 122.602 187.047 120.183 C 186.419 118.708 181.263 109.400 175.589 99.500 L 165.272 81.500 170.636 70.895 C 173.586 65.062 176.000 59.730 176.000 59.045 C 176.000 57.583 165.409 38.307 163.201 35.750 C 161.843 34.177 159.347 34.000 138.566 34.000 L 115.441 34.000 110.471 25.347 C 107.737 20.588 104.905 16.088 104.179 15.347 C 103.207 14.357 99.473 14.000 90.084 14.000 C 79.150 14.000 77.096 14.252 75.826 15.750 M 84.407 28.197 C 87.483 33.530 90.000 38.392 90.000 39.000 C 90.000 39.608 87.525 44.393 84.500 49.632 C 81.475 54.872 79.000 59.348 79.000 59.579 C 79.000 59.811 99.892 60.000 125.427 60.000 L 171.855 60.000 166.292 69.750 C 163.232 75.113 160.715 79.983 160.698 80.574 C 160.681 81.164 165.692 90.509 171.833 101.340 C 177.975 112.171 183.000 121.250 183.000 121.516 C 183.000 121.782 177.713 121.993 171.250 121.985 L 159.500 121.969 154.149 111.886 L 148.799 101.802 147.108 104.651 C 146.178 106.218 135.778 124.488 123.995 145.250 C 112.213 166.013 102.265 183.000 101.889 183.000 C 101.513 183.000 98.572 178.514 95.353 173.032 L 89.500 163.063 65.786 162.782 L 42.071 162.500 47.685 152.280 L 53.298 142.059 65.085 141.780 L 76.871 141.500 53.936 101.079 C 41.321 78.847 31.000 60.523 31.000 60.359 C 31.000 60.196 36.435 59.935 43.077 59.781 L 55.155 59.500 66.799 38.805 C 73.203 27.423 78.527 18.198 78.629 18.305 C 78.731 18.412 81.332 22.864 84.407 28.197 "/></g>
<g fill="#605BECFF" stroke="#605BECFF">
<path d="M 74.193 86.234 C 74.987 87.480 81.181 97.404 87.958 108.287 C 94.734 119.170 100.697 127.934 101.208 127.764 C 101.720 127.593 108.116 117.789 115.422 105.977 L 128.707 84.500 100.728 84.234 L 72.749 83.968 74.193 86.234 "/></g>
</svg>
