<?xml version="1.0" encoding="utf-8"?>
<!DOCTYPE svg PUBLIC "-//W3C//DTD SVG 20010904//EN" "http://www.w3.org/TR/2001/REC-SVG-20010904/DTD/svg10.dtd">
<svg version="1.0" xmlns="http://www.w3.org/2000/svg" width="215pt" height="202pt" viewBox="0 0 215 202" style="" preserveAspectRatio="xMidYMid meet">
<g fill="#3EC7F8FF" stroke="#3EC7F8FF">
<path d="M 59.393 42.768 C 39.025 62.773 33.110 69.833 27.777 80.500 C 16.814 102.431 16.919 130.824 28.046 153.514 C 38.068 173.949 57.237 189.789 79.716 196.212 C 90.877 199.400 110.166 199.380 121.500 196.168 C 131.342 193.379 141.391 188.384 149.982 182.009 C 157.700 176.283 162.699 171.241 159.500 172.411 C 145.374 177.578 119.894 177.533 103.500 172.313 C 84.505 166.263 64.417 150.576 58.008 136.788 C 51.193 122.125 52.774 102.481 61.778 89.955 L 64.462 86.221 69.312 93.860 C 72.379 98.692 78.358 105.586 85.581 112.619 C 95.842 122.610 97.000 124.092 97.000 127.234 C 97.000 131.672 93.928 135.637 89.785 136.547 L 86.594 137.248 90.547 139.322 C 93.217 140.723 96.447 141.413 100.500 141.448 C 114.484 141.569 125.134 131.105 125.264 117.116 C 125.347 108.209 122.685 103.640 110.236 91.325 C 90.006 71.312 82.172 55.848 81.080 33.768 L 80.500 22.036 59.393 42.768 "/></g>
<g fill="#E90302FF" stroke="#E90302FF">
<path d="M 101.206 23.031 C 101.684 46.370 102.656 50.538 110.221 61.707 C 117.514 72.473 127.365 78.429 147.974 84.533 C 154.555 86.482 161.416 88.697 163.220 89.455 C 168.401 91.633 174.728 96.642 177.996 101.154 C 186.064 112.291 176.519 83.027 167.941 70.325 C 164.156 64.721 144.096 44.120 118.644 19.697 L 100.787 2.563 101.206 23.031 "/></g>
<g fill="#1753D7FF" stroke="#1753D7FF">
<path d="M 145.128 100.750 C 149.377 112.843 148.467 127.244 142.719 138.909 C 138.881 146.695 129.661 155.599 121.105 159.782 C 113.515 163.493 113.476 163.500 101.000 163.407 C 94.125 163.355 87.652 163.130 86.616 162.907 C 83.257 162.182 89.042 165.546 96.915 168.896 C 106.421 172.941 114.184 174.674 126.500 175.500 C 138.310 176.292 149.275 175.053 157.283 172.021 C 162.419 170.077 163.619 169.044 168.006 162.797 C 170.723 158.929 174.405 152.104 176.189 147.632 C 178.943 140.728 179.436 138.217 179.454 131.000 C 179.472 124.085 179.058 121.713 177.232 118.278 C 172.126 108.672 161.862 100.582 150.217 96.985 C 146.682 95.893 143.636 95.000 143.449 95.000 C 143.261 95.000 144.017 97.588 145.128 100.750 "/></g>
</svg>
