<?xml version="1.0" encoding="utf-8"?>
<!DOCTYPE svg PUBLIC "-//W3C//DTD SVG 20010904//EN" "http://www.w3.org/TR/2001/REC-SVG-20010904/DTD/svg10.dtd">
<svg version="1.0" xmlns="http://www.w3.org/2000/svg" width="202pt" height="202pt" viewBox="0 0 202 202" style="" preserveAspectRatio="xMidYMid meet">
<g fill="#2C2C2CFF" stroke="#2C2C2CFF">
<path d="M 126.734 19.088 C 112.985 22.327 97.206 38.162 87.532 58.430 C 82.288 69.416 78.429 81.412 77.537 89.500 C 77.173 92.800 76.643 96.738 76.358 98.250 L 75.841 101.000 42.783 101.000 L 9.724 101.000 10.390 108.352 C 12.038 126.531 22.401 150.449 35.620 166.581 C 40.776 172.874 50.208 179.377 58.000 182.012 C 70.284 186.166 82.844 182.507 95.387 171.121 C 108.063 159.613 122.470 130.567 124.463 112.500 C 124.827 109.200 125.357 105.263 125.642 103.750 L 126.159 101.000 159.217 101.000 L 192.276 101.000 191.610 93.648 C 189.415 69.433 172.822 37.881 156.120 26.165 C 146.296 19.274 136.232 16.850 126.734 19.088 "/></g>
</svg>
