<?xml version="1.0" standalone="no"?><!DOCTYPE svg PUBLIC "-//W3C//DTD SVG 1.1//EN" "http://www.w3.org/Graphics/SVG/1.1/DTD/svg11.dtd"><svg t="1729059571846" class="icon" viewBox="0 0 1024 1024" version="1.1" xmlns="http://www.w3.org/2000/svg" p-id="4263" xmlns:xlink="http://www.w3.org/1999/xlink" width="200" height="200"><path d="M512 1024c282.771456 0 512-229.228544 512-512S794.771456 0 512 0 0 229.228544 0 512 229.228544 1024 512 1024z" fill="#003425" p-id="4264"></path><path d="M771.612672 616.48896a36.16768 36.16768 0 1 0-72.33536 0v186.474496a36.16768 36.16768 0 0 0 72.33536 0V616.48896z" fill="#FFFFFF" p-id="4265"></path><path d="M720.224256 227.590144a36.16768 36.16768 0 0 0-50.987008 4.120576L467.116032 469.377024a36.00384 36.00384 0 0 0-8.536064 20.955136c-0.28672 1.826816-0.434176 3.6864-0.434176 5.595136v303.824896a36.16768 36.16768 0 1 0 72.33536 0V506.51136l193.86368-227.934208a36.16768 36.16768 0 0 0-4.120576-50.987008z" fill="#FFFFFF" p-id="4266"></path><path d="M273.383424 211.23072a36.16768 36.16768 0 1 0-55.943168 45.858816l143.212544 174.6944a36.16768 36.16768 0 0 0 55.95136-45.858816L273.375232 211.23072z" fill="#FFFFFF" p-id="4267"></path><path d="M785.28512 520.839168a44.204032 44.204032 0 1 0 0-88.416256 44.204032 44.204032 0 0 0 0 88.416256z" fill="#00FF25" p-id="4268"></path></svg>